<svg
  xmlns="http://www.w3.org/2000/svg"
  viewBox="0 0 64 64"
  fill="none"
>
  <defs>
    <filter id="frameShadow" x="-4%" y="-4%" width="110%" height="115%">
      <feDropShadow dx="0.5" dy="1" stdDeviation="0.8" flood-opacity="0.2" />
    </filter>
  </defs>
  <g filter="url(#frameShadow)">
    <rect x="6" y="6" width="18" height="28" rx="1.5" fill="#5c4033" />
    <rect x="8.5" y="8.5" width="13" height="23" fill="#3a6b8c" />
    <path
      d="M8.5 26 L13 18 L17 23 L21.5 16 L21.5 31.5 L8.5 31.5Z"
      fill="#1a4a3a"
      opacity="0.85"
    />
    <circle cx="18" cy="12" r="2" fill="#f4c542" opacity="0.9" />
  </g>
  <g filter="url(#frameShadow)">
    <rect x="28" y="8" width="30" height="22" rx="1.5" fill="#3d3d3d" />
    <rect x="30.5" y="10.5" width="25" height="17" fill="#c44d2a" />
    <rect
      x="30.5"
      y="21"
      width="25"
      height="6.5"
      fill="#e8a838"
      opacity="0.6"
    />
    <circle cx="43" cy="21" r="4" fill="#f4c542" opacity="0.7" />
  </g>
  <g filter="url(#frameShadow)">
    <rect x="8" y="39" width="17" height="17" rx="1.5" fill="#7a5c47" />
    <rect x="10.5" y="41.5" width="12" height="12" fill="#264653" />
    <rect x="10.5" y="41.5" width="6" height="12" fill="#2a9d8f" opacity="0.5" />
    <rect x="16.5" y="41.5" width="6" height="12" fill="#1a7a6d" opacity="0.35" />
  </g>
  <g filter="url(#frameShadow)">
    <rect x="29" y="35" width="27" height="18" rx="1.5" fill="#6b5b50" />
    <rect x="31.5" y="37.5" width="22" height="13" fill="#8e6aad" />
    <path
      d="M31.5 50.5 L40 37.5 L45 37.5 L31.5 50.5Z"
      fill="#a87ec5"
      opacity="0.6"
    />
    <path
      d="M39 50.5 L50 37.5 L53.5 37.5 L53.5 40 L44 50.5Z"
      fill="#a87ec5"
      opacity="0.4"
    />
  </g>
</svg>
